PathFileType	3	(X/Y/Z)	D:\minhoCalibration\240510\subject4_KPNP\preferred\preferred12.trc
DataRate	CameraRate	NumFrames	NumMarkers	Units	OrigDataRate	OrigDataStartFrame	OrigNumFrames
200.0	200.0	19	10	mm	200.0	242	82	
Frame#	Time	Left_Ankle_Outer1			Left_Ankle_Inner1			Left_Knee_Outer1			Left_Knee_Inner1			Left_Wrist1			Right_Wrist1			Right_Knee_Inner1			Right_Knee_Outer1			Right_Ankle_Inner1			Right_Ankle_Outer1			
		X1	Y1	Z1	X2	Y2	Z2	X3	Y3	Z3	X4	Y4	Z4	X5	Y5	Z5	X6	Y6	Z6	X7	Y7	Z7	X8	Y8	Z8	X9	Y9	Z9	X10	Y10	Z10	
242	1.2	-646.4751	594.14594	1239.1642	-564.23785	538.81409	1212.4497	-547.31995	858.9729	831.85931	-443.61227	809.8324	846.86304	-490.43353	1132.1361	1195.9432	-295.41794	931.5025	1438.4143	-317.86673	525.97723	1174.2926	-264.12933	533.08386	1275.0714	-502.95514	93.79438	1297.0752	-465.08777	99.287193	1339.6632
243	1.205	-660.7359	614.64197	1212.9236	-578.94727	556.14948	1190.6187	-525.2821	879.99652	817.56512	-424.55869	825.92468	837.96716	-483.49429	1138.8015	1192.2246	-302.69354	930.91333	1440.3558	-311.66281	527.03424	1173.3202	-263.07672	534.71149	1276.2761	-502.63345	95.902367	1292.8018	-465.99573	101.85159	1336.9716
244	1.21	-675.40216	636.00439	1185.8174	-595.66919	573.65869	1167.025	-502.77203	900.74689	806.71869	-406.27542	841.09949	830.14709	-476.92862	1144.6743	1189.3823	-310.12088	929.91199	1442.7446	-305.5145	528.31415	1173.4551	-262.31302	536.38202	1277.2761	-502.19	98.566483	1288.655	-466.74664	104.21867	1333.8196
245	1.215	-689.33588	657.90991	1156.5027	-612.47485	591.69708	1141.6754	-479.61368	920.78186	797.00549	-388.12061	855.53253	824.29663	-469.45331	1151.0251	1185.905	-318.27148	929.10852	1444.8809	-299.73557	529.43774	1173.7034	-261.74918	538.07843	1278.386	-500.23318	100.12324	1283.8965	-467.2428	106.35282	1330.2688
246	1.22	-703.75201	680.95746	1126.0332	-629.8988	610.77008	1113.5665	-456.53763	939.63599	789.48596	-370.4498	868.58093	819.65326	-462.30368	1156.7804	1183.1843	-326.89963	928.05121	1446.4093	-294.11292	530.5022	1174.0841	-261.56024	539.9762	1279.4982	-499.66208	102.27249	1278.8068	-467.47681	108.26899	1326.4691
247	1.225	-717.31183	704.48389	1093.3485	-647.53943	630.48779	1083.4478	-432.91483	957.08203	783.9353	-353.30069	880.42084	816.38782	-455.18933	1162.6886	1180.8328	-336.21112	926.84229	1447.3698	-288.3913	531.98474	1174.3596	-261.70468	541.8858	1280.9254	-498.44077	104.41576	1274.2145	-467.69034	109.9801	1322.7123
248	1.23	-731.01031	729.51886	1058.7913	-665.10577	651.32367	1051.1434	-409.89331	973.09967	780.46814	-337.04684	890.9223	814.29926	-448.0571	1167.462	1178.7693	-346.09439	925.32013	1447.5583	-284.02072	532.86932	1175.0352	-262.39343	543.89282	1281.7786	-497.63718	106.5401	1269.7432	-467.88464	111.74266	1318.6664
249	1.235	-743.50989	755.07739	1021.5872	-681.71899	673.53979	1016.7904	-387.29797	988.05652	778.67297	-321.77814	900.14429	813.20111	-441.12198	1171.9969	1177.1003	-356.45663	923.48645	1446.877	-280.2897	534.48749	1175.7108	-263.70306	545.54645	1282.519	-496.401	107.98892	1264.4161	-468.43103	113.61554	1314.6864
250	1.24	-754.47644	781.19714	981.7746	-696.86072	696.83453	980.10425	-365.19373	1000.6141	778.54199	-307.7236	908.09631	812.81348	-434.08682	1175.9867	1175.5808	-366.96335	921.51978	1445.8699	-276.64453	535.82501	1175.699	-265.02209	547.35675	1283.4667	-496.39151	110.30131	1260.1108	-469.32037	115.58834	1310.7683
251	1.245	-763.37903	808.18835	939.85718	-709.7666	720.95093	941.13739	-343.87302	1011.0317	779.86829	-295.08664	914.71899	813.0484	-427.28885	1179.4681	1174.3794	-377.67023	919.3941	1443.7772	-274.05212	537.29285	1175.5819	-267.15686	549.0976	1283.6639	-496.28275	112.21136	1255.7585	-470.33035	117.59996	1306.9155
252	1.25	-769.13995	836.03003	895.48743	-720.91852	746.25519	899.05469	-323.7265	1019.4182	782.4375	-283.63876	920.1983	813.55054	-420.57208	1182.5189	1173.3778	-388.28387	917.11554	1440.546	-272.54553	538.97485	1175.3657	-269.47891	550.88934	1283.7546	-495.94635	114.22598	1251.1989	-471.59354	119.50909	1303.132
253	1.255	-772.30011	865.17719	849.23413	-729.04279	772.46466	854.20776	-305.33078	1025.791	786.25775	-274.16083	924.4375	814.32788	-414.57422	1184.9581	1172.9772	-398.73965	914.81042	1436.7213	-272.02719	541.07776	1174.8673	-272.39252	552.7616	1283.5461	-496.47308	115.69601	1247.3993	-473.05151	121.12801	1299.3864
254	1.26	-771.44049	894.83453	801.55518	-733.90295	799.52991	808.05054	-289.18399	1030.2552	790.88831	-266.38538	927.61444	814.9447	-408.67618	1187.0276	1172.3708	-408.67126	912.53217	1432.2332	-272.58112	542.74811	1174.0099	-275.91687	554.4342	1282.4495	-497.17712	116.50269	1243.2312	-474.76468	122.37132	1295.6111
255	1.265	-765.90729	924.435	752.46912	-733.63843	825.8728	758.53308	-275.6752	1032.9673	795.68414	-260.52679	929.72778	815.12695	-403.97339	1188.6171	1172.2104	-418.02237	910.38892	1427.2083	-273.591	544.34515	1171.853	-279.6853	556.36243	1281.7405	-498.28253	116.94055	1239.3577	-476.85645	123.21194	1291.8601
256	1.27	-756.38629	954.08783	702.5163	-730.31763	853.36383	708.01154	-265.2417	1033.9583	800.38306	-256.69165	931.09149	814.77893	-399.84244	1190.0934	1172.0708	-426.49426	908.54877	1421.8739	-275.61874	545.64362	1169.3164	-284.33719	557.76599	1279.2451	-499.27841	117.08522	1234.9364	-479.20905	123.71927	1287.9323
257	1.275	-742.26062	983.26434	652.44568	-721.80597	881.07977	655.93915	-257.58362	1034.0219	803.987	-255.00575	931.96802	813.71686	-396.49899	1191.6844	1171.8177	-434.09863	907.19031	1416.1226	-277.64224	546.74713	1165.76	-289.16638	559.23639	1276.6886	-501.1618	117.22961	1230.7185	-481.85574	123.94646	1283.8608
258	1.28	-724.3717	1012.2502	603.08411	-708.83276	909.79181	605.01703	-252.81665	1033.4281	806.44525	-255.38344	932.4502	811.909	-394.04843	1192.9352	1171.3789	-440.42285	906.26624	1410.4493	-280.91666	547.78253	1162.3226	-293.92987	560.26544	1273.9714	-503.20886	116.88595	1226.0334	-485.12436	124.2707	1279.746
259	1.285	-701.07861	1040.1252	554.26251	-690.70789	937.72266	554.61523	-250.64177	1032.1447	807.53125	-257.68204	932.97797	809.01782	-392.02087	1194.7931	1171.0376	-445.58273	905.79211	1404.338	-284.59848	548.61853	1158.3795	-298.37143	560.78412	1270.859	-505.42908	116.56878	1220.802	-488.38248	124.21561	1275.1565
260	1.29	-673.69867	1066.8541	507.66904	-668.28442	964.86432	505.91641	-251.32149	1029.8506	807.90302	-262.23431	933.49414	805.10144	-390.13773	1196.5516	1170.5106	-449.4903	905.66943	1398.9316	-288.48975	549.17914	1154.3085	-302.17978	560.72705	1267.4442	-507.76846	116.03363	1215.5522	-491.82764	123.97413	1270.2477
